<mxfile host="app.diagrams.net" modified="2021-11-04T11:39:01.806Z" agent="5.0 (X11; Linux x86_64) AppleWebKit/537.36 (KHTML, like Gecko) Chrome/92.0.4515.131 Safari/537.36" etag="ZP9ZAt9x2kqk7NJ4PgLI" version="15.6.8" type="github">
  <diagram id="LkatXbXhpc6mPPL7ChRW" name="Page-1">
    <mxGraphModel dx="2035" dy="672" grid="1" gridSize="10" guides="1" tooltips="1" connect="1" arrows="1" fold="1" page="1" pageScale="1" pageWidth="850" pageHeight="1100" math="0" shadow="0">
      <root>
        <mxCell id="0" />
        <mxCell id="1" parent="0" />
        <mxCell id="Yr2Akf7SC9dJ6bto8UMj-26" value="" style="rounded=0;whiteSpace=wrap;html=1;fontFamily=Helvetica;fontSize=10;strokeColor=#82b366;align=center;fillColor=#d5e8d4;" vertex="1" parent="1">
          <mxGeometry x="-160" y="340" width="820" height="240" as="geometry" />
        </mxCell>
        <mxCell id="t_RywQkz7kmj2XYPyou5-1" value="&lt;b&gt;インターネット&lt;/b&gt;" style="rounded=0;whiteSpace=wrap;html=1;strokeColor=#4D4D4D;" parent="1" vertex="1">
          <mxGeometry x="280" y="40" width="160" height="40" as="geometry" />
        </mxCell>
        <mxCell id="t_RywQkz7kmj2XYPyou5-2" value="&lt;b&gt;モデム&lt;/b&gt;&lt;br&gt;&lt;font style=&quot;font-size: 9px&quot;&gt;VDSL&amp;lt;N&amp;gt;&lt;/font&gt;" style="rounded=0;whiteSpace=wrap;html=1;strokeColor=#4D4D4D;" parent="1" vertex="1">
          <mxGeometry x="280" y="120" width="160" height="40" as="geometry" />
        </mxCell>
        <mxCell id="t_RywQkz7kmj2XYPyou5-4" value="&lt;b&gt;ルータ&lt;/b&gt;&lt;br&gt;&lt;font style=&quot;font-size: 10px&quot;&gt;RT-500MI&lt;/font&gt;" style="rounded=0;whiteSpace=wrap;html=1;strokeColor=#4D4D4D;" parent="1" vertex="1">
          <mxGeometry x="280" y="200" width="160" height="40" as="geometry" />
        </mxCell>
        <mxCell id="t_RywQkz7kmj2XYPyou5-5" value="&lt;b&gt;スイッチングハブ&lt;/b&gt;&lt;br&gt;&lt;font style=&quot;font-size: 10px&quot;&gt;TL-SG108PE&lt;/font&gt;" style="rounded=0;whiteSpace=wrap;html=1;strokeColor=#4D4D4D;" parent="1" vertex="1">
          <mxGeometry x="280" y="280" width="160" height="40" as="geometry" />
        </mxCell>
        <mxCell id="t_RywQkz7kmj2XYPyou5-3" value="4" style="rounded=1;whiteSpace=wrap;html=1;strokeColor=#4D4D4D;" parent="1" vertex="1">
          <mxGeometry x="350" y="315" width="20" height="10" as="geometry" />
        </mxCell>
        <mxCell id="t_RywQkz7kmj2XYPyou5-6" value="" style="rounded=1;whiteSpace=wrap;html=1;strokeColor=#4D4D4D;" parent="1" vertex="1">
          <mxGeometry x="350" y="75" width="20" height="10" as="geometry" />
        </mxCell>
        <mxCell id="t_RywQkz7kmj2XYPyou5-7" value="" style="rounded=1;whiteSpace=wrap;html=1;strokeColor=#4D4D4D;" parent="1" vertex="1">
          <mxGeometry x="350" y="115" width="20" height="10" as="geometry" />
        </mxCell>
        <mxCell id="t_RywQkz7kmj2XYPyou5-8" value="" style="endArrow=none;html=1;rounded=0;strokeWidth=4;strokeColor=#B266FF;exitX=0.5;exitY=0;exitDx=0;exitDy=0;entryX=0.5;entryY=1;entryDx=0;entryDy=0;" parent="1" source="t_RywQkz7kmj2XYPyou5-7" target="t_RywQkz7kmj2XYPyou5-6" edge="1">
          <mxGeometry width="50" height="50" relative="1" as="geometry">
            <mxPoint x="360" y="110" as="sourcePoint" />
            <mxPoint x="520" y="100" as="targetPoint" />
          </mxGeometry>
        </mxCell>
        <mxCell id="t_RywQkz7kmj2XYPyou5-12" value="" style="rounded=1;whiteSpace=wrap;html=1;strokeColor=#4D4D4D;" parent="1" vertex="1">
          <mxGeometry x="350" y="155" width="20" height="10" as="geometry" />
        </mxCell>
        <mxCell id="t_RywQkz7kmj2XYPyou5-14" value="" style="rounded=1;whiteSpace=wrap;html=1;strokeColor=#4D4D4D;" parent="1" vertex="1">
          <mxGeometry x="350" y="195" width="20" height="10" as="geometry" />
        </mxCell>
        <mxCell id="t_RywQkz7kmj2XYPyou5-15" value="" style="endArrow=none;html=1;rounded=0;strokeWidth=4;strokeColor=#B266FF;exitX=0.5;exitY=0;exitDx=0;exitDy=0;entryX=0.5;entryY=1;entryDx=0;entryDy=0;" parent="1" source="t_RywQkz7kmj2XYPyou5-14" target="t_RywQkz7kmj2XYPyou5-12" edge="1">
          <mxGeometry width="50" height="50" relative="1" as="geometry">
            <mxPoint x="450.34000000000003" y="195" as="sourcePoint" />
            <mxPoint x="449.9999999999999" y="165" as="targetPoint" />
          </mxGeometry>
        </mxCell>
        <mxCell id="t_RywQkz7kmj2XYPyou5-16" value="" style="rounded=1;whiteSpace=wrap;html=1;strokeColor=#4D4D4D;" parent="1" vertex="1">
          <mxGeometry x="350" y="235" width="20" height="10" as="geometry" />
        </mxCell>
        <mxCell id="t_RywQkz7kmj2XYPyou5-17" value="&lt;p&gt;&lt;font style=&quot;font-size: 12px&quot;&gt;3&lt;/font&gt;&lt;/p&gt;" style="rounded=1;whiteSpace=wrap;html=1;strokeColor=#4D4D4D;align=center;" parent="1" vertex="1">
          <mxGeometry x="350" y="275" width="20" height="10" as="geometry" />
        </mxCell>
        <mxCell id="t_RywQkz7kmj2XYPyou5-18" value="" style="endArrow=none;html=1;rounded=0;strokeWidth=4;strokeColor=#B266FF;exitX=0.5;exitY=0;exitDx=0;exitDy=0;entryX=0.5;entryY=1;entryDx=0;entryDy=0;" parent="1" source="t_RywQkz7kmj2XYPyou5-17" target="t_RywQkz7kmj2XYPyou5-16" edge="1">
          <mxGeometry width="50" height="50" relative="1" as="geometry">
            <mxPoint x="420" y="275" as="sourcePoint" />
            <mxPoint x="420" y="245" as="targetPoint" />
          </mxGeometry>
        </mxCell>
        <mxCell id="Yr2Akf7SC9dJ6bto8UMj-3" value="&lt;p&gt;1&lt;/p&gt;" style="rounded=1;whiteSpace=wrap;html=1;strokeColor=#4D4D4D;align=center;" vertex="1" parent="1">
          <mxGeometry x="410" y="315" width="20" height="10" as="geometry" />
        </mxCell>
        <mxCell id="Yr2Akf7SC9dJ6bto8UMj-4" value="&lt;b&gt;Wi-Fi ルータ&lt;/b&gt;&lt;br&gt;&lt;span style=&quot;font-size: 10px&quot;&gt;Archer C6&lt;/span&gt;" style="rounded=0;whiteSpace=wrap;html=1;strokeColor=#4D4D4D;" vertex="1" parent="1">
          <mxGeometry x="280" y="360" width="160" height="40" as="geometry" />
        </mxCell>
        <mxCell id="Yr2Akf7SC9dJ6bto8UMj-5" value="&lt;p&gt;&lt;br&gt;&lt;/p&gt;" style="rounded=1;whiteSpace=wrap;html=1;strokeColor=#4D4D4D;align=center;" vertex="1" parent="1">
          <mxGeometry x="350" y="355" width="20" height="10" as="geometry" />
        </mxCell>
        <mxCell id="Yr2Akf7SC9dJ6bto8UMj-6" value="" style="endArrow=none;html=1;rounded=0;strokeWidth=4;strokeColor=#B266FF;exitX=0.5;exitY=0;exitDx=0;exitDy=0;entryX=0.5;entryY=1;entryDx=0;entryDy=0;" edge="1" parent="1" source="Yr2Akf7SC9dJ6bto8UMj-5" target="t_RywQkz7kmj2XYPyou5-3">
          <mxGeometry width="50" height="50" relative="1" as="geometry">
            <mxPoint x="339.76" y="395" as="sourcePoint" />
            <mxPoint x="339.76" y="365" as="targetPoint" />
            <Array as="points">
              <mxPoint x="360" y="340" />
            </Array>
          </mxGeometry>
        </mxCell>
        <mxCell id="Yr2Akf7SC9dJ6bto8UMj-7" value="&lt;b&gt;Raspberry Pi&lt;/b&gt;&lt;br&gt;&lt;span style=&quot;font-size: 10px&quot;&gt;3 Model B+&lt;/span&gt;" style="rounded=0;whiteSpace=wrap;html=1;strokeColor=#4D4D4D;" vertex="1" parent="1">
          <mxGeometry x="480" y="360" width="160" height="40" as="geometry" />
        </mxCell>
        <mxCell id="Yr2Akf7SC9dJ6bto8UMj-8" value="&lt;b&gt;Wi-Fi ルータ（中継機）&lt;/b&gt;&lt;br&gt;&lt;span style=&quot;font-size: 10px&quot;&gt;WEX-1166DHP&lt;/span&gt;" style="rounded=0;whiteSpace=wrap;html=1;strokeColor=#4D4D4D;" vertex="1" parent="1">
          <mxGeometry x="80" y="360" width="160" height="40" as="geometry" />
        </mxCell>
        <mxCell id="Yr2Akf7SC9dJ6bto8UMj-9" value="" style="endArrow=none;html=1;rounded=0;strokeWidth=4;strokeColor=#B266FF;exitX=0.5;exitY=1;exitDx=0;exitDy=0;entryX=0.5;entryY=0;entryDx=0;entryDy=0;" edge="1" parent="1" source="Yr2Akf7SC9dJ6bto8UMj-3" target="Yr2Akf7SC9dJ6bto8UMj-10">
          <mxGeometry width="50" height="50" relative="1" as="geometry">
            <mxPoint x="370" y="285" as="sourcePoint" />
            <mxPoint x="520" y="285" as="targetPoint" />
            <Array as="points">
              <mxPoint x="420" y="340" />
              <mxPoint x="560" y="340" />
            </Array>
          </mxGeometry>
        </mxCell>
        <mxCell id="Yr2Akf7SC9dJ6bto8UMj-10" value="&lt;p&gt;&lt;br&gt;&lt;/p&gt;" style="rounded=1;whiteSpace=wrap;html=1;strokeColor=#4D4D4D;align=center;" vertex="1" parent="1">
          <mxGeometry x="550" y="355" width="20" height="10" as="geometry" />
        </mxCell>
        <mxCell id="Yr2Akf7SC9dJ6bto8UMj-11" value="" style="endArrow=none;html=1;rounded=0;strokeWidth=4;strokeColor=#B266FF;exitX=1;exitY=0.5;exitDx=0;exitDy=0;entryX=0;entryY=0.5;entryDx=0;entryDy=0;dashed=1;dashPattern=1 1;" edge="1" parent="1" source="Yr2Akf7SC9dJ6bto8UMj-8" target="Yr2Akf7SC9dJ6bto8UMj-4">
          <mxGeometry width="50" height="50" relative="1" as="geometry">
            <mxPoint x="530" y="265" as="sourcePoint" />
            <mxPoint x="530" y="235" as="targetPoint" />
          </mxGeometry>
        </mxCell>
        <mxCell id="Yr2Akf7SC9dJ6bto8UMj-12" value="&lt;b&gt;ポートミラーリング&lt;/b&gt;" style="text;html=1;strokeColor=none;fillColor=none;align=center;verticalAlign=middle;whiteSpace=wrap;rounded=0;fontFamily=Helvetica;fontSize=10;" vertex="1" parent="1">
          <mxGeometry x="430" y="315" width="120" height="30" as="geometry" />
        </mxCell>
        <mxCell id="Yr2Akf7SC9dJ6bto8UMj-14" value="" style="endArrow=none;html=1;rounded=0;strokeWidth=4;strokeColor=#B266FF;exitX=1;exitY=0.5;exitDx=0;exitDy=0;entryX=0;entryY=0.5;entryDx=0;entryDy=0;dashed=1;dashPattern=1 1;" edge="1" parent="1" source="Yr2Akf7SC9dJ6bto8UMj-4" target="Yr2Akf7SC9dJ6bto8UMj-7">
          <mxGeometry width="50" height="50" relative="1" as="geometry">
            <mxPoint x="250" y="390" as="sourcePoint" />
            <mxPoint x="290" y="390" as="targetPoint" />
          </mxGeometry>
        </mxCell>
        <mxCell id="Yr2Akf7SC9dJ6bto8UMj-15" value="&lt;b&gt;外付け HDD&lt;br&gt;&lt;/b&gt;WDBBKG0040HBK-JESN" style="rounded=0;whiteSpace=wrap;html=1;strokeColor=#4D4D4D;" vertex="1" parent="1">
          <mxGeometry x="680" y="360" width="160" height="40" as="geometry" />
        </mxCell>
        <mxCell id="Yr2Akf7SC9dJ6bto8UMj-16" value="" style="endArrow=none;html=1;rounded=0;strokeWidth=2;strokeColor=#000000;exitX=0;exitY=0.5;exitDx=0;exitDy=0;entryX=1;entryY=0.5;entryDx=0;entryDy=0;" edge="1" parent="1" source="Yr2Akf7SC9dJ6bto8UMj-15" target="Yr2Akf7SC9dJ6bto8UMj-7">
          <mxGeometry width="50" height="50" relative="1" as="geometry">
            <mxPoint x="679.1700000000001" y="314.9999999999999" as="sourcePoint" />
            <mxPoint x="679.1700000000001" y="284.9999999999999" as="targetPoint" />
          </mxGeometry>
        </mxCell>
        <mxCell id="Yr2Akf7SC9dJ6bto8UMj-17" value="192.168.0.4" style="text;html=1;strokeColor=none;fillColor=none;align=center;verticalAlign=middle;whiteSpace=wrap;rounded=0;fontFamily=Helvetica;fontSize=10;" vertex="1" parent="1">
          <mxGeometry x="380" y="345" width="60" height="15" as="geometry" />
        </mxCell>
        <mxCell id="Yr2Akf7SC9dJ6bto8UMj-18" value="192.168.0.3" style="text;html=1;strokeColor=none;fillColor=none;align=center;verticalAlign=middle;whiteSpace=wrap;rounded=0;fontFamily=Helvetica;fontSize=10;" vertex="1" parent="1">
          <mxGeometry x="580" y="345" width="60" height="15" as="geometry" />
        </mxCell>
        <mxCell id="Yr2Akf7SC9dJ6bto8UMj-19" value="192.168.0.2&lt;span style=&quot;color: rgba(0 , 0 , 0 , 0) ; font-family: monospace ; font-size: 0px&quot;&gt;%3CmxGraphModel%3E%3Croot%3E%3CmxCell%20id%3D%220%22%2F%3E%3CmxCell%20id%3D%221%22%20parent%3D%220%22%2F%3E%3CmxCell%20id%3D%222%22%20value%3D%22192.168.0.4%22%20style%3D%22text%3Bhtml%3D1%3BstrokeColor%3Dnone%3BfillColor%3Dnone%3Balign%3Dcenter%3BverticalAlign%3Dmiddle%3BwhiteSpace%3Dwrap%3Brounded%3D0%3BfontFamily%3DHelvetica%3BfontSize%3D10%3B%22%20vertex%3D%221%22%20parent%3D%221%22%3E%3CmxGeometry%20x%3D%22380%22%20y%3D%22345%22%20width%3D%2260%22%20height%3D%2215%22%20as%3D%22geometry%22%2F%3E%3C%2FmxCell%3E%3C%2Froot%3E%3C%2FmxGraphModel%3E&lt;/span&gt;" style="text;html=1;strokeColor=none;fillColor=none;align=center;verticalAlign=middle;whiteSpace=wrap;rounded=0;fontFamily=Helvetica;fontSize=10;" vertex="1" parent="1">
          <mxGeometry x="380" y="265" width="60" height="15" as="geometry" />
        </mxCell>
        <mxCell id="Yr2Akf7SC9dJ6bto8UMj-20" value="192.168.0.1&lt;span style=&quot;color: rgba(0 , 0 , 0 , 0) ; font-family: monospace ; font-size: 0px&quot;&gt;%3CmxGraphModel%3E%3Croot%3E%3CmxCell%20id%3D%220%22%2F%3E%3CmxCell%20id%3D%221%22%20parent%3D%220%22%2F%3E%3CmxCell%20id%3D%222%22%20value%3D%22192.168.0.4%22%20style%3D%22text%3Bhtml%3D1%3BstrokeColor%3Dnone%3BfillColor%3Dnone%3Balign%3Dcenter%3BverticalAlign%3Dmiddle%3BwhiteSpace%3Dwrap%3Brounded%3D0%3BfontFamily%3DHelvetica%3BfontSize%3D10%3B%22%20vertex%3D%221%22%20parent%3D%221%22%3E%3CmxGeometry%20x%3D%22380%22%20y%3D%22345%22%20width%3D%2260%22%20height%3D%2215%22%20as%3D%22geometry%22%2F%3E%3C%2FmxCell%3E%3C%2Froot%3E%3C%2FmxGraphModel%3E&lt;/span&gt;" style="text;html=1;strokeColor=none;fillColor=none;align=center;verticalAlign=middle;whiteSpace=wrap;rounded=0;fontFamily=Helvetica;fontSize=10;" vertex="1" parent="1">
          <mxGeometry x="380" y="185" width="60" height="15" as="geometry" />
        </mxCell>
        <mxCell id="Yr2Akf7SC9dJ6bto8UMj-21" value="&lt;b&gt;デスクトップPC&lt;/b&gt;" style="rounded=0;whiteSpace=wrap;html=1;strokeColor=#4D4D4D;" vertex="1" parent="1">
          <mxGeometry y="440" width="120" height="40" as="geometry" />
        </mxCell>
        <mxCell id="Yr2Akf7SC9dJ6bto8UMj-22" value="&lt;b&gt;Nintendo Switch&lt;/b&gt;" style="rounded=0;whiteSpace=wrap;html=1;strokeColor=#4D4D4D;" vertex="1" parent="1">
          <mxGeometry x="140" y="520" width="120" height="40" as="geometry" />
        </mxCell>
        <mxCell id="Yr2Akf7SC9dJ6bto8UMj-23" value="&lt;b&gt;スマホ&lt;/b&gt;" style="rounded=0;whiteSpace=wrap;html=1;strokeColor=#4D4D4D;" vertex="1" parent="1">
          <mxGeometry x="280" y="520" width="120" height="40" as="geometry" />
        </mxCell>
        <mxCell id="Yr2Akf7SC9dJ6bto8UMj-24" value="&lt;b&gt;スマホ&lt;/b&gt;" style="rounded=0;whiteSpace=wrap;html=1;strokeColor=#4D4D4D;" vertex="1" parent="1">
          <mxGeometry x="380" y="460" width="120" height="40" as="geometry" />
        </mxCell>
        <mxCell id="Yr2Akf7SC9dJ6bto8UMj-25" value="&lt;b&gt;Play Station 4&lt;/b&gt;" style="rounded=0;whiteSpace=wrap;html=1;strokeColor=#4D4D4D;" vertex="1" parent="1">
          <mxGeometry x="240" y="440" width="120" height="40" as="geometry" />
        </mxCell>
        <mxCell id="Yr2Akf7SC9dJ6bto8UMj-27" value="&lt;p&gt;&lt;br&gt;&lt;/p&gt;" style="rounded=1;whiteSpace=wrap;html=1;strokeColor=#4D4D4D;align=center;" vertex="1" parent="1">
          <mxGeometry x="150" y="395" width="20" height="10" as="geometry" />
        </mxCell>
        <mxCell id="Yr2Akf7SC9dJ6bto8UMj-28" value="&lt;p&gt;&lt;br&gt;&lt;/p&gt;" style="rounded=1;whiteSpace=wrap;html=1;strokeColor=#4D4D4D;align=center;" vertex="1" parent="1">
          <mxGeometry x="50" y="435" width="20" height="10" as="geometry" />
        </mxCell>
        <mxCell id="Yr2Akf7SC9dJ6bto8UMj-29" value="" style="endArrow=none;html=1;rounded=0;strokeWidth=4;strokeColor=#B266FF;exitX=0.5;exitY=1;exitDx=0;exitDy=0;entryX=0.5;entryY=0;entryDx=0;entryDy=0;" edge="1" parent="1" source="Yr2Akf7SC9dJ6bto8UMj-27" target="Yr2Akf7SC9dJ6bto8UMj-28">
          <mxGeometry width="50" height="50" relative="1" as="geometry">
            <mxPoint x="370" y="284.9999999999999" as="sourcePoint" />
            <mxPoint x="370" y="254.9999999999999" as="targetPoint" />
            <Array as="points">
              <mxPoint x="160" y="420" />
              <mxPoint x="60" y="420" />
            </Array>
          </mxGeometry>
        </mxCell>
        <mxCell id="Yr2Akf7SC9dJ6bto8UMj-30" value="&lt;b&gt;スマホ&lt;/b&gt;" style="rounded=0;whiteSpace=wrap;html=1;strokeColor=#4D4D4D;" vertex="1" parent="1">
          <mxGeometry y="520" width="120" height="40" as="geometry" />
        </mxCell>
        <mxCell id="Yr2Akf7SC9dJ6bto8UMj-31" value="" style="endArrow=none;html=1;rounded=0;strokeWidth=4;strokeColor=#B266FF;exitX=0.5;exitY=0;exitDx=0;exitDy=0;entryX=0.63;entryY=1.054;entryDx=0;entryDy=0;dashed=1;dashPattern=1 1;entryPerimeter=0;" edge="1" parent="1">
          <mxGeometry width="50" height="50" relative="1" as="geometry">
            <mxPoint x="60" y="520" as="sourcePoint" />
            <mxPoint x="180.80000000000018" y="402.1600000000001" as="targetPoint" />
            <Array as="points">
              <mxPoint x="60" y="500" />
              <mxPoint x="181" y="500" />
            </Array>
          </mxGeometry>
        </mxCell>
        <mxCell id="Yr2Akf7SC9dJ6bto8UMj-33" value="" style="endArrow=none;html=1;rounded=0;strokeWidth=4;strokeColor=#B266FF;dashed=1;dashPattern=1 1;" edge="1" parent="1">
          <mxGeometry width="50" height="50" relative="1" as="geometry">
            <mxPoint x="199.58" y="400" as="sourcePoint" />
            <mxPoint x="199.58" y="520" as="targetPoint" />
            <Array as="points" />
          </mxGeometry>
        </mxCell>
        <mxCell id="Yr2Akf7SC9dJ6bto8UMj-34" value="" style="endArrow=none;html=1;rounded=0;strokeWidth=4;strokeColor=#B266FF;dashed=1;dashPattern=1 1;entryX=0.5;entryY=0;entryDx=0;entryDy=0;" edge="1" parent="1" target="Yr2Akf7SC9dJ6bto8UMj-23">
          <mxGeometry width="50" height="50" relative="1" as="geometry">
            <mxPoint x="219.57999999999993" y="400" as="sourcePoint" />
            <mxPoint x="219.57999999999993" y="520" as="targetPoint" />
            <Array as="points">
              <mxPoint x="220" y="500" />
              <mxPoint x="340" y="500" />
            </Array>
          </mxGeometry>
        </mxCell>
        <mxCell id="Yr2Akf7SC9dJ6bto8UMj-35" value="" style="endArrow=none;html=1;rounded=0;strokeWidth=4;strokeColor=#B266FF;exitX=0.5;exitY=0;exitDx=0;exitDy=0;entryX=0.5;entryY=1;entryDx=0;entryDy=0;dashed=1;dashPattern=1 1;" edge="1" parent="1" source="Yr2Akf7SC9dJ6bto8UMj-25" target="Yr2Akf7SC9dJ6bto8UMj-4">
          <mxGeometry width="50" height="50" relative="1" as="geometry">
            <mxPoint x="450" y="390" as="sourcePoint" />
            <mxPoint x="490" y="390" as="targetPoint" />
            <Array as="points">
              <mxPoint x="300" y="420" />
              <mxPoint x="360" y="420" />
            </Array>
          </mxGeometry>
        </mxCell>
        <mxCell id="Yr2Akf7SC9dJ6bto8UMj-37" value="" style="endArrow=none;html=1;rounded=0;strokeWidth=4;strokeColor=#B266FF;exitX=0.5;exitY=0;exitDx=0;exitDy=0;entryX=0.625;entryY=1.054;entryDx=0;entryDy=0;dashed=1;dashPattern=1 1;entryPerimeter=0;" edge="1" parent="1" source="Yr2Akf7SC9dJ6bto8UMj-24" target="Yr2Akf7SC9dJ6bto8UMj-4">
          <mxGeometry width="50" height="50" relative="1" as="geometry">
            <mxPoint x="450" y="390" as="sourcePoint" />
            <mxPoint x="490" y="390" as="targetPoint" />
            <Array as="points">
              <mxPoint x="440" y="440" />
              <mxPoint x="380" y="440" />
            </Array>
          </mxGeometry>
        </mxCell>
        <mxCell id="Yr2Akf7SC9dJ6bto8UMj-38" value="&lt;b&gt;スマホ&lt;/b&gt;" style="rounded=0;whiteSpace=wrap;html=1;strokeColor=#4D4D4D;" vertex="1" parent="1">
          <mxGeometry x="460" y="520" width="120" height="40" as="geometry" />
        </mxCell>
        <mxCell id="Yr2Akf7SC9dJ6bto8UMj-39" value="" style="endArrow=none;html=1;rounded=0;strokeWidth=4;strokeColor=#B266FF;exitX=0.75;exitY=1;exitDx=0;exitDy=0;entryX=0.5;entryY=0;entryDx=0;entryDy=0;dashed=1;dashPattern=1 1;" edge="1" parent="1" source="Yr2Akf7SC9dJ6bto8UMj-4" target="Yr2Akf7SC9dJ6bto8UMj-38">
          <mxGeometry width="50" height="50" relative="1" as="geometry">
            <mxPoint x="520" y="439.17" as="sourcePoint" />
            <mxPoint x="560" y="439.17" as="targetPoint" />
            <Array as="points">
              <mxPoint x="400" y="420" />
              <mxPoint x="520" y="420" />
            </Array>
          </mxGeometry>
        </mxCell>
        <mxCell id="Yr2Akf7SC9dJ6bto8UMj-40" value="&lt;b&gt;ノートPC&lt;/b&gt;" style="rounded=0;whiteSpace=wrap;html=1;strokeColor=#4D4D4D;" vertex="1" parent="1">
          <mxGeometry x="-140" y="440" width="120" height="40" as="geometry" />
        </mxCell>
        <mxCell id="Yr2Akf7SC9dJ6bto8UMj-41" value="" style="endArrow=none;html=1;rounded=0;strokeWidth=4;strokeColor=#B266FF;exitX=0.5;exitY=0;exitDx=0;exitDy=0;entryX=0;entryY=0.5;entryDx=0;entryDy=0;dashed=1;dashPattern=1 1;" edge="1" parent="1" source="Yr2Akf7SC9dJ6bto8UMj-40" target="Yr2Akf7SC9dJ6bto8UMj-8">
          <mxGeometry width="50" height="50" relative="1" as="geometry">
            <mxPoint x="-50" y="390" as="sourcePoint" />
            <mxPoint x="-10" y="390" as="targetPoint" />
            <Array as="points">
              <mxPoint x="-80" y="380" />
            </Array>
          </mxGeometry>
        </mxCell>
        <mxCell id="Yr2Akf7SC9dJ6bto8UMj-42" value="&lt;b&gt;ミラーリング対象端末&lt;/b&gt;" style="text;html=1;strokeColor=none;fillColor=none;align=center;verticalAlign=middle;whiteSpace=wrap;rounded=0;fontFamily=Helvetica;fontSize=10;" vertex="1" parent="1">
          <mxGeometry x="-160" y="550" width="120" height="30" as="geometry" />
        </mxCell>
      </root>
    </mxGraphModel>
  </diagram>
</mxfile>
